<svg xmlns="http://www.w3.org/2000/svg" viewBox="0 0 800 640" width="100%" height="100%">
    <defs>
        <g id="m-letter">
            <path d="M -55 85 L -55 -85 L 0 15 L 55 -85 L 55 85" fill="none" stroke-width="45" stroke-linejoin="round" stroke-linecap="round"/>
        </g>
    </defs>

    <g fill="none" stroke="#9A9A9A" stroke-linecap="round" stroke-linejoin="round">
        
        <path d="M 280 100 L 220 100 Q 180 100 180 140 L 180 260" stroke-width="12"/>
        <path d="M 180 380 L 180 500 Q 180 540 220 540 L 280 540" stroke-width="12"/>

        <path d="M 480 100 L 540 100 Q 580 100 580 140 L 580 260" stroke-width="12"/>
        <path d="M 580 380 L 580 500 Q 580 540 540 540 L 480 540" stroke-width="12"/>

        <path d="M 60 320 L 200 320" stroke-width="16"/>
        <path d="M 160 280 L 200 320 L 160 360" stroke-width="16"/>

        <path d="M 560 320 C 620 320, 620 260, 680 260 L 740 260" stroke-width="16"/>
        <path d="M 700 220 L 740 260 L 700 300" stroke-width="16"/>
        
    </g>

    <use href="#m-letter" x="380" y="210" stroke="#F4E2B5"/>

    <use href="#m-letter" x="380" y="430" stroke="#AED5B2"/>


    <g transform="translate(490, 200) scale(0.75)" stroke="#333333" stroke-width="8" stroke-linecap="round">
        <line x1="0" y1="0" x2="65" y2="0"/>
        <line x1="0" y1="20" x2="65" y2="20"/>
        <line x1="0" y1="40" x2="25" y2="40"/>
        <line x1="0" y1="60" x2="25" y2="60"/>
        <circle cx="50" cy="50" r="16" fill="none"/>
        <line x1="62" y1="62" x2="80" y2="80"/>
    </g>

    <g transform="translate(490, 420) scale(0.6)" fill="none" stroke="#333333" stroke-width="8" stroke-linecap="round" stroke-linejoin="round">
        <path d="M 30 75 C 10 75 5 55 20 40 C 10 20 30 5 50 15 C 65 -5 95 -5 110 15 C 130 5 150 20 140 40 C 155 55 150 75 130 75 C 120 90 90 95 80 80 C 70 95 40 90 30 75 Z"/>
        <path d="M 50 15 C 50 35 70 45 80 30" />
        <path d="M 20 40 C 40 40 55 60 40 75" />
        <path d="M 140 40 C 120 40 105 60 120 75" />
        <path d="M 110 15 C 110 35 90 45 80 30" />
        <path d="M 80 80 C 80 60 90 50 80 30" />
    </g>
</svg>